<svg width="800px" height="800px" viewBox="0 0 24 24" fill="none" xmlns="http://www.w3.org/2000/svg">
<path d="M20.665 3.41705C20.8906 3.41705 21.0963 3.5188 21.2373 3.68415C21.3655 3.83445 21.4284 4.0322 21.4055 4.23345L19.5292 20.7303C19.5168 20.8398 19.4623 20.9392 19.3752 21.0113C19.288 21.0834 19.174 21.1235 19.0527 21.1245C18.9155 21.1256 18.7836 21.0769 18.6816 20.9876L13.784 16.7032L11.4589 19.8631C11.396 19.9486 11.3039 20.0054 11.2016 20.0215C11.0994 20.0376 10.995 20.0117 10.9103 19.9493C10.8256 19.8868 10.7672 19.7924 10.7475 19.6859L9.58153 13.2505L2.49301 10.8407C2.26189 10.7621 2.11585 10.5363 2.1384 10.2923C2.16095 10.0483 2.34651 9.8465 2.58913 9.80208L19.9999 6.6139C20.0911 6.59728 20.176 6.56475 20.2523 6.51838L20.4024 5.34149L20.665 3.41705ZM18.747 4.90805L4.17936 7.5762L10.1504 9.60627L10.6872 12.5694L11.4287 11.5615L13.784 13.6225L13.6192 13.6366L18.747 4.90805Z" fill="#292929"/>
<path d="M20.665 3.41705C20.8906 3.41705 21.0963 3.5188 21.2373 3.68415C21.3655 3.83445 21.4284 4.0322 21.4055 4.23345L19.5292 20.7303C19.5168 20.8398 19.4623 20.9392 19.3752 21.0113C19.288 21.0834 19.174 21.1235 19.0527 21.1245C18.9155 21.1256 18.7836 21.0769 18.6816 20.9876L13.784 16.7032L11.4589 19.8631C11.396 19.9486 11.3039 20.0054 11.2016 20.0215C11.0994 20.0376 10.995 20.0117 10.9103 19.9493C10.8256 19.8868 10.7672 19.7924 10.7475 19.6859L9.58153 13.2505L2.49301 10.8407C2.26189 10.7621 2.11585 10.5363 2.1384 10.2923C2.16095 10.0483 2.34651 9.8465 2.58913 9.80208L19.9999 6.6139C20.0911 6.59728 20.176 6.56475 20.2523 6.51838L20.4024 5.34149L20.665 3.41705Z" fill="#0088CC"/>
</svg>
